# xmcd
#
# Track frame offsets:
#	150
#	40886
#	75787
#	105025
#	137345
#	165523
#	198772
#	222953
#	242145
#	260847
#	286501
#
# Disc length: 4051 seconds
# Revision: 0
# Processed by: cddbd v1.5.2PL0 Copyright (c) Steve Scherf et al.
# Submitted via: dBpowerAMP V12.0
#
DISCID=800fd10b
DTITLE=Ariel Magnus - Ein Chinese auf dem Fahrrad CD4
DYEAR=2007
DGENRE=Hörbuch
TTITLE0=37
TTITLE1=38
TTITLE2=39
TTITLE3=40
TTITLE4=41
TTITLE5=42
TTITLE6=43
TTITLE7=44
TTITLE8=45
TTITLE9=46
TTITLE10=47
EXTD=
EXTT0=
EXTT1=
EXTT2=
EXTT3=
EXTT4=
EXTT5=
EXTT6=
EXTT7=
EXTT8=
EXTT9=
EXTT10=
PLAYORDER=
